# xmcd
#
# Track frame offsets:
# 150
# 17775
# 38700
# 55500
# 72375
# 93600
# 110175
# 129000
# 144675
# 163500
# 182625
# 198300
# 220050
#
# Disc length: 3202 seconds
#
#
# Revision: 0
# Processed by: cddbd v1.5.1PL0 Copyright (c) Steve Scherf et al.
# Submitted via: FreeRIP 2.91 
#
DISCID=b60c800d
DTITLE=Natalie Howard - Yesterdays Make-up
DYEAR=2004
DGENRE=Country
TTITLE0=Is it just me
TTITLE1=I can't
TTITLE2=Don't be that way baby
TTITLE3=I don't want to live like that
TTITLE4=I want to get out
TTITLE5=Are you for real
TTITLE6=What do you want from me
TTITLE7=You never knew me
TTITLE8=Intoxicated
TTITLE9=The long night
TTITLE10=You did
TTITLE11=Love you anyway
TTITLE12=Yesterdays make-up
EXTD=
EXTT0=
EXTT1=
EXTT2=
EXTT3=
EXTT4=
EXTT5=
EXTT6=
EXTT7=
EXTT8=
EXTT9=
EXTT10=
EXTT11=
EXTT12=
PLAYORDER=
